<?xml version="1.0" encoding="utf-8"?>
<!-- Generator: Adobe Illustrator 19.2.1, SVG Export Plug-In . SVG Version: 6.00 Build 0)  -->
<svg version="1.1" id="Layer_1" xmlns="http://www.w3.org/2000/svg" xmlns:xlink="http://www.w3.org/1999/xlink" x="0px" y="0px"
	 viewBox="0 0 792 671.2" style="enable-background:new 0 0 792 671.2;" xml:space="preserve">
<style type="text/css">
	.st0{fill:#FFFFFF;}
</style>
<g>
	<path class="st0" d="M174.6,164.1c-7.2,11.7-39.8,24.1-18.8,43.9s36.1-2.6,45.4-17.2c9.2-14.6,35.9-50.2,33.7-113.9
		c-2.2-63.7-34.8-69.6-70-36.8S92,124,63.5,242.2s-53.2,206.9,9.3,183.4s83.2-94.8,84.8-106.8c1.6-12-0.5-26.9-23.9,8.3
		S98,388.2,78.4,401.1c-19.6,12.9-24.1,4.2-15.9-33.8s55.3-235.1,98.8-288S216,96.3,174.6,164.1z"/>
	<path class="st0" d="M110.9,296.4c-11.9,4.5-18.8,25.2-3.1,24c15.6-1.2,66.6-36.8,80.5-43.1c13.8-6.3-19.4,30-38.1,117
		s-33.2,172.1-21,221.7s22.2-94.7,32.2-139.7c10-45,56.9-204,70-223.4c13.1-19.4,8.4-45.3-19.2-26.9S177.1,271.2,110.9,296.4z"/>
	<path class="st0" d="M335.1,52.6c-5.2,18.3-101.2,218.3-114.4,273.2c-13.2,54.9,2.9,38.4,10.7,20.5c7.8-17.9,38.8-88.7,54-104.7
		c15.2-16,9.9-5.8,0.7,25.1c-9.2,30.9-45.3,141.9-42.9,179.3c2.4,37.4,15.5,33.1,21.9-2.8c6.4-35.9,30.7-129.7,48.2-169.2
		c17.5-39.5,29.4-83.1-3.3-73.6s29.9-97.3,37.6-110.2c7.7-12.9,18.3-33.5,7-47.4C343.2,28.9,337.8,43.2,335.1,52.6z"/>
	<path class="st0" d="M343.9,356c7.6,13.3,39-5.3,88-83.9c48.9-78.6,49.1-88.6,18.6-86.9S372.1,243.3,333,307.1
		c-39,63.8-43.3,130-22.3,143.5c20.6,13.3,68.6-16.7,87.1-62.4c15.2-37.6-5.7-36.6-34.3,12.4c-13,22.4-44.2,45.7-45.4,34.9
		C314.6,402.6,338.8,347.1,343.9,356z M432.8,219.7c32.8-25.4-43,75.2-71.4,98.4C353.8,324.3,400,245,432.8,219.7z"/>
	<path class="st0" d="M728.3,110.9c-27.7,7.9-79,17.9-132.7,27.4c-17.5,48.5-38.7,108.2-51.5,143.2c-23,63.1-32.8,129.8-46.1,127
		c-13.3-2.8,11.6-86.3,28.1-145.8c7.9-28.7,25.5-76.3,42.5-119.7c-11.9,2-23.8,4-35.4,5.9c-24.3,62.5-64.9,198.8-71.5,220.5
		c-8,26.3-34.9,82.4-24.7,10.9c7.5-52,48.1-162.9,71.9-227.4c-47.4,7.6-86.8,13.4-100.3,15.2c-35.6,4.8-38.4-1.9-42-11.4
		c-6.4-16.5,5.1-9.7,54.5-11.3c16.5-0.5,52.8-5.3,95-11.9c5.2-14.2,8.8-24.2,9.9-28.1c7.9-28.5,38.4-12.1,20,15.8
		c-1.3,2-2.8,4.7-4.4,8.2c11.5-1.9,23.2-3.9,34.9-6c15.2-38.3,28.5-70.3,32-78.3c11.8-26.9,21.7,3.3,15.5,16.7
		c-2.2,4.9-10.5,27.3-21.1,56.7c58.5-11,111.1-22.8,125.1-30.2C749.9,76.5,797.2,91.2,728.3,110.9z"/>
	<path class="st0" d="M625.2,256.5c-7.4,4.2-12.4,15.7-5.5,20.2s22.6,3.6,30.8-13.3c8.3-16.9,31-58.3,11.6-72.6
		c-19.4-14.4-48.4-5.9-84.3,74.6c-35.8,80.4-35.2,124-26,147.1c9.2,23.1,42.4,2.7,71.9-28.3s54.7-72,64.8-106.7s6.7-57-4.7-71.9
		c-11.4-14.9,0.7,24.5-14.8,65.1c-15.5,40.7-42.5,113-87.9,125.9c-45.5,12.9,20.5-137.6,31-154.6s30.7-40.2,30.4-16
		C642.3,250.1,634.7,251,625.2,256.5z"/>
	<g>
		<path class="st0" d="M180.9,507.2l33.4-4.1l1.2,10.1l-22.4,2.8l1.2,10.1l20.7-2.6l1.2,10.1l-20.7,2.6l2.4,19.4l-11,1.4
			L180.9,507.2z"/>
		<path class="st0" d="M222,502.2l11-1.4l6.1,49.7l-11,1.4L222,502.2z"/>
		<path class="st0" d="M243.4,499.5l11-1.4l4.9,39.6l20.3-2.5l1.2,10.1l-31.3,3.9L243.4,499.5z"/>
		<path class="st0" d="M280.7,494.9l16.6-2l15.5,31l0.1,0l7.5-33.9l16.5-2l6.1,49.7l-11,1.4l-4.7-38.1l-0.1,0l-8.4,39.8l-8.4,1
			l-14.8-36.6l-2.6,0l4.7,38.1l-11,1.4L280.7,494.9z"/>
		<path class="st0" d="M393.9,493.3c-1-1-2.3-1.7-3.9-2c-1.6-0.4-3.1-0.4-4.4-0.3c-0.8,0.1-1.6,0.3-2.4,0.6
			c-0.8,0.3-1.6,0.7-2.3,1.2c-0.7,0.5-1.2,1.1-1.6,1.8c-0.4,0.7-0.5,1.5-0.4,2.5c0.2,1.5,0.9,2.6,2.1,3.2c1.2,0.7,2.7,1.2,4.5,1.5
			c1.8,0.4,3.7,0.7,5.7,1c2,0.3,4,0.9,5.8,1.7c1.8,0.8,3.4,2,4.8,3.6c1.3,1.6,2.2,3.8,2.5,6.7c0.3,2.8,0.1,5.2-0.7,7.4
			c-0.8,2.2-2,4.1-3.5,5.6c-1.6,1.6-3.5,2.8-5.7,3.8c-2.2,0.9-4.6,1.6-7.2,1.9c-3.2,0.4-6.3,0.3-9.2-0.4c-2.9-0.6-5.7-1.9-8.3-3.8
			l6.7-9.5c1.3,1.4,2.9,2.3,4.7,3c1.8,0.6,3.6,0.8,5.5,0.6c0.9-0.1,1.8-0.3,2.7-0.7c0.9-0.3,1.7-0.7,2.3-1.3
			c0.7-0.5,1.2-1.1,1.6-1.8c0.4-0.7,0.5-1.5,0.4-2.4c-0.2-1.5-0.9-2.6-2.2-3.3c-1.3-0.7-2.8-1.3-4.6-1.7c-1.8-0.4-3.8-0.8-5.8-1.1
			c-2.1-0.4-4.1-0.9-5.9-1.8c-1.9-0.8-3.5-2-4.8-3.5c-1.4-1.5-2.2-3.7-2.5-6.5c-0.3-2.7-0.1-5.1,0.7-7.2c0.8-2.1,2-4,3.6-5.6
			c1.6-1.6,3.5-2.8,5.7-3.8c2.2-1,4.5-1.6,7-1.9c2.8-0.3,5.6-0.3,8.3,0.2c2.7,0.5,5.3,1.5,7.6,3.1L393.9,493.3z"/>
		<path class="st0" d="M442.3,488.1c-1.2-1.2-2.7-2-4.3-2.5c-1.7-0.5-3.5-0.6-5.6-0.4c-2.1,0.3-3.9,0.9-5.6,1.9
			c-1.7,1-3,2.3-4.2,3.9c-1.1,1.6-1.9,3.4-2.4,5.5c-0.5,2.1-0.6,4.2-0.3,6.5c0.3,2.3,0.9,4.4,1.9,6.3c1,1.9,2.2,3.4,3.6,4.7
			c1.4,1.3,3.1,2.2,4.9,2.8c1.8,0.6,3.7,0.8,5.7,0.5c2.2-0.3,4.2-1,5.8-2.1c1.6-1.2,2.9-2.6,3.8-4.5l10,5.7
			c-1.7,3.2-4.1,5.7-7.2,7.5c-3.1,1.8-6.3,2.9-9.7,3.3c-3.9,0.5-7.5,0.3-11-0.5s-6.5-2.2-9.1-4.2c-2.7-2-4.9-4.5-6.6-7.6
			c-1.7-3.1-2.8-6.6-3.3-10.6c-0.5-4-0.3-7.7,0.7-11.1c0.9-3.4,2.5-6.4,4.6-8.9c2.1-2.6,4.7-4.7,7.9-6.3c3.1-1.6,6.6-2.7,10.5-3.2
			c1.4-0.2,2.9-0.2,4.4-0.2c1.6,0.1,3.1,0.3,4.6,0.7c1.5,0.4,3.1,1,4.5,1.7c1.5,0.8,2.8,1.8,4.1,3L442.3,488.1z"/>
		<path class="st0" d="M456.3,473.2l11-1.4l2.3,18.5l21.3-2.6l-2.3-18.5l11-1.4l6.1,49.7l-11,1.4l-2.7-21.5l-21.3,2.6l2.7,21.5
			l-11,1.4L456.3,473.2z"/>
		<path class="st0" d="M510,491.9c-0.5-4-0.3-7.7,0.7-11.1c0.9-3.4,2.5-6.4,4.6-8.9c2.1-2.6,4.7-4.7,7.9-6.3
			c3.1-1.6,6.6-2.7,10.5-3.2c3.9-0.5,7.5-0.3,11,0.5c3.4,0.8,6.5,2.2,9.1,4.2c2.7,2,4.9,4.5,6.6,7.6c1.7,3.1,2.8,6.6,3.3,10.6
			c0.5,4,0.3,7.7-0.7,11.1c-0.9,3.4-2.5,6.4-4.6,8.9c-2.1,2.6-4.7,4.7-7.9,6.3c-3.1,1.6-6.6,2.7-10.5,3.2c-3.9,0.5-7.5,0.3-11-0.5
			c-3.4-0.8-6.5-2.2-9.1-4.2c-2.7-2-4.9-4.5-6.6-7.6C511.6,499.4,510.5,495.8,510,491.9z M521.4,490.4c0.3,2.3,0.9,4.4,1.9,6.3
			c1,1.9,2.2,3.4,3.8,4.7c1.5,1.3,3.3,2.2,5.3,2.7c2,0.6,4.2,0.7,6.5,0.4c2.3-0.3,4.4-0.9,6.2-2c1.8-1,3.3-2.3,4.5-3.9
			c1.2-1.6,2-3.4,2.5-5.4s0.6-4.2,0.3-6.6c-0.3-2.3-0.9-4.4-1.9-6.3c-1-1.9-2.2-3.4-3.8-4.7c-1.5-1.3-3.3-2.2-5.3-2.7
			c-2-0.6-4.2-0.7-6.5-0.4c-2.3,0.3-4.4,0.9-6.2,2c-1.8,1-3.3,2.3-4.5,3.9c-1.2,1.6-2,3.4-2.5,5.5
			C521.2,486,521.1,488.2,521.4,490.4z"/>
		<path class="st0" d="M568.4,484.6c-0.5-4-0.3-7.7,0.7-11.1c0.9-3.4,2.5-6.4,4.6-8.9c2.1-2.6,4.7-4.7,7.9-6.3
			c3.1-1.6,6.6-2.7,10.5-3.2c3.9-0.5,7.5-0.3,11,0.5c3.4,0.8,6.5,2.2,9.1,4.2c2.7,2,4.9,4.5,6.6,7.6c1.7,3.1,2.8,6.6,3.3,10.6
			c0.5,4,0.3,7.7-0.7,11.1c-0.9,3.4-2.5,6.4-4.6,8.9c-2.1,2.6-4.7,4.7-7.9,6.3c-3.1,1.6-6.6,2.7-10.5,3.2c-3.9,0.5-7.5,0.3-11-0.5
			c-3.4-0.8-6.5-2.2-9.1-4.2c-2.7-2-4.9-4.5-6.6-7.6C570,492.1,568.9,488.6,568.4,484.6z M579.8,483.2c0.3,2.3,0.9,4.4,1.9,6.3
			c1,1.9,2.2,3.4,3.8,4.7c1.5,1.3,3.3,2.2,5.3,2.7c2,0.6,4.2,0.7,6.5,0.4c2.3-0.3,4.4-0.9,6.2-2c1.8-1,3.3-2.3,4.5-3.9
			c1.2-1.6,2-3.4,2.5-5.4c0.5-2,0.6-4.2,0.3-6.6c-0.3-2.3-0.9-4.4-1.9-6.3c-1-1.9-2.2-3.4-3.8-4.7c-1.5-1.3-3.3-2.2-5.3-2.7
			c-2-0.6-4.2-0.7-6.5-0.4c-2.3,0.3-4.4,0.9-6.2,2c-1.8,1-3.3,2.3-4.5,3.9c-1.2,1.6-2,3.4-2.5,5.5
			C579.6,478.8,579.5,480.9,579.8,483.2z"/>
		<path class="st0" d="M626.9,452.2l11-1.4l4.9,39.6l20.3-2.5l1.2,10.1l-31.3,3.9L626.9,452.2z"/>
	</g>
</g>
</svg>
